<svg width="175" height="169" viewBox="0 0 175 169" fill="none" xmlns="http://www.w3.org/2000/svg">
<path d="M171.974 140.686H167.653V40.0892C167.653 34.3241 163.001 29.6347 157.281 29.6347H122.948L122.84 29.1142C119.479 12.7514 105.086 0.514084 88.619 0.019558C78.806 -0.30145 69.4878 3.33809 62.3862 10.2745C57.1096 15.4323 53.5674 21.9436 52.1342 29.1142L52.0309 29.6347H17.7195C11.9995 29.6347 7.34689 34.3241 7.34689 40.0892V140.686H3.0257C1.36006 140.686 0 142.057 0 143.736V147.44C0 159.326 9.59788 169 21.3908 169H153.609C165.402 169 175 159.326 175 147.44V143.736C175 142.057 173.64 140.686 171.974 140.686ZM57.6174 33.374L57.6304 33.3046C57.6562 33.1658 57.6777 33.014 57.6863 32.8361V32.7928C58.4954 25.8347 61.5771 19.5664 66.5955 14.6731C72.4533 8.95573 80.2047 5.93218 88.434 6.16209C104.552 6.61324 117.602 20.2257 117.529 36.5017C117.49 44.2927 114.542 51.6542 109.231 57.2328C105.641 61.0371 102.947 65.3057 101.23 69.9299L101.075 70.3551H90.5257V36.0506L91.3607 36.3022C94.2616 37.1871 97.0893 39.1131 100.012 42.1931C101.152 43.4034 103.068 43.4424 104.281 42.2842C105.482 41.1346 105.521 39.2042 104.367 37.9853C99.2154 32.5412 93.7193 29.7475 88.0423 29.6825L87.9519 29.6738C87.5258 29.6087 87.2332 29.6261 86.8974 29.6955L86.8071 29.7085C81.4271 30.0208 76.017 32.7754 70.7231 37.8942C69.518 39.0437 69.4792 40.9741 70.6327 42.1931C71.175 42.8004 71.9669 43.1388 72.8105 43.1388C73.6067 43.1388 74.347 42.8394 74.885 42.2929C77.9409 39.3474 80.7944 37.4474 83.6221 36.4844L84.4743 36.1937V70.3551H73.9468L73.7918 69.9213C72.152 65.2753 69.5438 61.0588 66.2555 57.723C60.5915 52.0186 57.4711 44.4402 57.4711 36.3889C57.4711 35.3912 57.5228 34.3761 57.6174 33.374ZM75.8362 92.5654V81.8463C75.8362 80.3323 75.7329 78.7663 75.5263 77.1917L75.4316 76.4542H99.5296L99.435 77.1917C99.2542 78.5798 99.1638 79.9333 99.1638 81.2173V92.5654H75.8362ZM96.5427 98.6645L87.5 112.333L78.4573 98.6645H96.5427ZM13.3983 40.0892C13.3983 37.6903 15.3351 35.7382 17.7195 35.7382H51.4197V36.3889C51.4197 46.0712 55.1599 55.1766 61.9515 62.0262C66.9313 67.0756 69.7805 74.3026 69.7805 81.8463V95.6149C69.7805 95.7364 69.7934 95.8622 69.8106 96.0227L69.8278 96.1095C69.9053 96.5997 70.1119 97.0681 70.4132 97.4672L70.439 97.5019L84.9908 119.5C85.5331 120.354 86.4929 120.875 87.5 120.875C88.5071 120.875 89.4669 120.354 90.0049 119.508L104.587 97.4629C104.888 97.0681 105.095 96.5996 105.172 96.1138L105.189 96.0184C105.207 95.8622 105.22 95.7364 105.22 95.6149V81.2173C105.22 74.2072 108.202 67.1753 113.621 61.4059C120.008 54.6777 123.546 45.8326 123.58 36.4974V35.7382H157.281C159.665 35.7382 161.602 37.6903 161.602 40.0892V140.686H109.709C108.822 140.639 107.987 140.964 107.384 141.571L100.916 148.091H74.0501L67.848 141.866C67.2627 141.116 66.3976 140.686 65.4636 140.686H13.3983V40.0892ZM168.944 147.44C168.944 155.964 162.067 162.897 153.609 162.897H21.3908C12.9335 162.897 6.0557 155.964 6.0557 147.44V146.79H64.1896L70.6585 153.31C71.2482 153.874 72.0186 154.19 72.8105 154.19H102.19C102.999 154.19 103.743 153.869 104.294 153.284L110.737 146.79H168.944V147.44Z" fill="#8BAECA"/>
</svg>
