<svg width="150" height="162" viewBox="0 0 150 162" fill="none" xmlns="http://www.w3.org/2000/svg">
<path fill-rule="evenodd" clip-rule="evenodd" d="M21.4159 87.1689C24.4047 87.1689 26.8162 89.6012 26.8162 92.5692C26.8162 95.558 24.4047 97.9903 21.4159 97.9903C18.4271 97.9903 16.0156 95.558 16.0156 92.5692C16.0153 89.6012 18.4271 87.1689 21.4159 87.1689ZM97.4544 64.3512L77.5225 75.8733V52.8495L97.4544 41.3271V64.3512ZM75.0695 48.6035L95.0222 37.1018L75.0695 25.5794L55.1169 37.1018L75.0695 48.6035ZM72.6165 75.8736L52.6846 64.3516V41.3278L72.6165 52.8503V75.8736ZM128.723 4.88488C131.712 4.88488 134.123 7.31713 134.123 10.2852C134.123 13.274 131.712 15.7062 128.723 15.7062C125.734 15.7062 123.323 13.274 123.323 10.2852C123.322 7.31713 125.734 4.88488 128.723 4.88488ZM21.4159 102.876C26.2597 102.876 30.3205 99.5158 31.4128 95.0222H115.799C124.271 95.0222 131.176 88.1379 131.176 79.6661V64.3512C131.176 55.8795 124.271 48.9951 115.799 48.9951H102.36V37.1018C102.36 36.2155 101.886 35.4114 101.123 34.9786L76.2857 20.6326C75.5435 20.1998 74.5952 20.1998 73.8534 20.6326L49.0155 34.9786C48.2529 35.4114 47.779 36.2155 47.779 37.1018V48.9951H34.3398C28.5682 48.9951 23.8686 44.2955 23.8686 38.5243V23.2094C23.8686 17.4378 28.5682 12.7385 34.3398 12.7385H118.726C119.819 17.2525 123.879 20.5918 128.723 20.5918C134.412 20.5918 139.029 15.9745 139.029 10.2855C139.029 4.61734 134.412 0 128.723 0C123.879 0 119.819 3.33934 118.726 7.8533H34.3398C25.868 7.8533 18.9629 14.7376 18.9629 23.2094V38.5243C18.9629 46.996 25.868 53.8804 34.3398 53.8804H47.779V65.7737C47.779 66.6393 48.2529 67.4434 49.0155 67.8966L73.8534 82.2221C74.6003 82.6659 75.5446 82.6622 76.2857 82.2221L101.123 67.8966C101.886 67.443 102.36 66.6393 102.36 65.7737V53.8804H115.799C121.591 53.8804 126.27 58.58 126.27 64.3516V79.6665C126.27 85.4381 121.592 90.1377 115.799 90.1377H31.4128C30.3205 85.6237 26.2597 82.2844 21.4159 82.2844C15.727 82.2844 11.11 86.9017 11.11 92.5699C11.1096 98.2582 15.727 102.876 21.4159 102.876ZM142.368 119.324L106.379 143.729C79.831 159.023 66.3092 156.57 47.5934 153.169C41.3479 152.036 34.3398 150.758 26.1567 150.036V116.562C35.3499 113.47 43.636 113.078 55.0961 119.551C55.467 119.757 55.8795 119.86 56.2915 119.86H83.2934C87.4386 119.86 90.2054 124.101 88.6526 127.857C87.7455 130.042 85.643 131.464 83.2934 131.464H56.2915C54.9312 131.464 53.8385 132.557 53.8385 133.897C53.8385 135.257 54.9309 136.35 56.2915 136.35H83.2934C86.9006 136.35 90.1777 134.536 92.136 131.629C93.117 131.8 94.019 131.897 94.96 131.897C99.301 131.897 101.408 130.247 104.462 128.517L137.009 109.718C138.287 108.976 139.75 108.791 141.173 109.183C142.574 109.553 143.749 110.44 144.491 111.656C145.831 114.418 144.945 117.551 142.368 119.324ZM21.251 154.097C21.251 155.457 20.1587 156.55 18.7984 156.55H7.33788C5.99799 156.55 4.88488 155.457 4.88488 154.097V115.119C4.88488 113.779 5.99799 112.666 7.33788 112.666H18.7981C20.1583 112.666 21.2507 113.779 21.2507 115.119L21.251 154.097ZM148.82 109.41C148.799 109.369 148.779 109.327 148.758 109.286C147.377 106.874 145.13 105.164 142.451 104.442C139.771 103.721 136.968 104.092 134.577 105.473L100.876 124.931C98.0328 126.575 97.1687 127.143 93.9087 126.951C93.9499 126.518 93.9706 126.085 93.9706 125.673C93.9706 119.778 89.1887 114.975 83.2934 114.975H56.9303C44.5219 108.152 35.102 108.524 25.2907 111.698C24.0538 109.369 21.6216 107.781 18.7977 107.781H7.33788C3.29784 107.781 0 111.079 0 115.119V154.097C0 158.158 3.29784 161.435 7.33788 161.435H18.7981C22.5702 161.435 25.6824 158.611 26.0948 154.942C33.907 155.664 40.6883 156.88 46.7274 157.993C54.2717 159.353 61.1971 160.611 68.5558 160.611C79.7276 160.611 91.93 157.725 108.915 147.914C108.956 147.893 109.018 147.852 109.059 147.811L145.11 123.364C149.727 120.231 151.293 114.356 148.82 109.41Z" fill="#8BAECA"/>
</svg>
