<svg width="171" height="163" viewBox="0 0 171 163" fill="none" xmlns="http://www.w3.org/2000/svg">
<path d="M110.914 81.3815C110.914 93.2312 102.88 103.449 91.3758 106.229C89.9293 106.579 88.4724 105.69 88.1227 104.243C87.7727 102.796 88.6625 101.339 90.1093 100.99C98.2998 99.0103 104.261 92.2501 105.346 84.0769H85.3516C83.8627 84.0769 82.6562 82.8701 82.6562 81.3815V61.3892C72.8033 62.7106 65.1798 71.1728 65.1798 81.3815C65.1798 90.7332 71.5185 98.7965 80.5942 100.99C82.041 101.339 82.9305 102.796 82.5808 104.243C82.2825 105.477 81.1792 106.306 79.9631 106.306C79.7536 106.306 79.5405 106.281 79.3277 106.229C67.8238 103.449 59.7892 93.2316 59.7892 81.3815C59.7892 67.2865 71.2565 55.8192 85.3516 55.8192C86.8405 55.8192 88.0469 57.026 88.0469 58.5145V78.6862H108.219C109.707 78.6862 110.914 79.893 110.914 81.3815ZM119.367 72.7185C119.372 72.7878 119.374 72.8575 119.374 72.928C119.374 74.4165 118.168 75.6233 116.679 75.6233C116.677 75.6233 116.675 75.6233 116.672 75.6233H93.8048C92.3159 75.6233 91.1095 74.4165 91.1095 72.928V50.0609C91.1095 48.5724 92.3159 47.3656 93.8048 47.3656C107.831 47.3656 119.254 58.7186 119.367 72.7185ZM113.798 70.2327C112.594 61.2616 105.472 54.1388 96.5005 52.9356V70.2327H113.798ZM170.703 81.3815C170.703 82.8701 169.497 84.0769 168.008 84.0769H151.354C145.514 95.9567 136.596 106.039 125.459 113.301C122.628 115.147 119.688 116.783 116.659 118.21L124.143 125.694C126.201 124.358 128.6 123.639 131.111 123.639C134.54 123.639 137.763 124.974 140.187 127.398C145.191 132.403 145.191 140.546 140.187 145.55C137.763 147.974 134.54 149.31 131.111 149.31C127.683 149.31 124.459 147.974 122.035 145.55C119.611 143.126 118.276 139.903 118.276 136.474C118.276 133.963 118.995 131.564 120.331 129.506L111.305 120.48C103.898 123.274 96.0563 124.855 88.0465 125.146V137.379C93.8339 138.621 98.1866 143.774 98.1866 149.927C98.1866 157.004 92.4287 162.762 85.3512 162.762C78.2737 162.762 72.5158 157.004 72.5158 149.927C72.5158 143.774 76.8685 138.621 82.6559 137.379V125.145C74.6461 124.855 66.8042 123.274 59.3971 120.48L50.3718 129.505C51.708 131.563 52.4267 133.962 52.4267 136.474C52.4267 139.902 51.0916 143.125 48.6669 145.549C46.2429 147.974 43.0197 149.309 39.5913 149.309C36.1628 149.309 32.9396 147.974 30.5153 145.549C25.511 140.545 25.511 132.402 30.5153 127.398C32.9396 124.973 36.1628 123.638 39.5913 123.638C42.1026 123.638 44.5021 124.357 46.5595 125.693L54.0432 118.21C51.0147 116.782 48.074 115.146 45.2432 113.3C34.1065 106.038 25.1886 95.956 19.3484 84.0761H2.69531C1.20642 84.0761 0 82.8694 0 81.3808C0 79.8923 1.20642 78.6855 2.69531 78.6855H19.3491C25.1893 66.8057 34.1072 56.7234 45.2439 49.4615C48.0747 47.6158 51.0154 45.9792 54.0439 44.5521L46.5603 37.0685C44.5025 38.4043 42.1029 39.1234 39.592 39.1234C36.1635 39.1234 32.9403 37.7883 30.516 35.3639C25.5117 30.3596 25.5117 22.2166 30.516 17.2123C32.9403 14.7879 36.1635 13.4528 39.592 13.4528C43.0204 13.4528 46.2437 14.7879 48.668 17.2123C51.0923 19.6366 52.4274 22.8598 52.4274 26.2879C52.4274 28.7992 51.7083 31.1988 50.3722 33.2566L59.3979 42.2823C66.8049 39.4885 74.6469 37.9072 82.6566 37.6169V25.3834C76.8692 24.1414 72.5165 18.9879 72.5165 12.8351C72.5165 5.75791 78.2744 0 85.3519 0C92.4295 0 98.1874 5.75791 98.1874 12.8351C98.1874 18.9879 93.8346 24.1414 88.0472 25.3834V37.6165C96.057 37.9065 103.899 39.4878 111.306 42.2819L120.331 33.2566C118.995 31.1988 118.276 28.7992 118.276 26.2879C118.276 22.8595 119.612 19.6363 122.036 17.2123C124.46 14.7879 127.683 13.4528 131.112 13.4528C134.54 13.4528 137.764 14.7879 140.188 17.2123C145.192 22.2166 145.192 30.3596 140.188 35.3639C137.764 37.7883 134.54 39.1234 131.112 39.1234C128.601 39.1234 126.201 38.4043 124.144 37.0685L116.66 44.5521C119.688 45.9792 122.629 47.6158 125.46 49.4615C136.597 56.7234 145.515 66.8057 151.355 78.6855H168.008C169.497 78.6862 170.703 79.893 170.703 81.3815ZM123.667 26.2886C123.667 28.2771 124.441 30.1465 125.847 31.5528C127.253 32.959 129.123 33.7331 131.111 33.7331C133.1 33.7331 134.969 32.9586 136.375 31.5528C139.278 28.6501 139.278 23.9272 136.375 21.0245C134.969 19.6183 133.1 18.8442 131.111 18.8442C129.123 18.8442 127.253 19.6186 125.847 21.0245C124.441 22.4308 123.667 24.3006 123.667 26.2886ZM39.5916 33.7335C41.58 33.7335 43.4495 32.959 44.8554 31.5531C46.2616 30.1469 47.0361 28.2774 47.0361 26.289C47.0361 24.3006 46.2616 22.4311 44.8557 21.0249C43.4495 19.6186 41.58 18.8445 39.5916 18.8445C37.6032 18.8445 35.7337 19.619 34.3279 21.0249C31.4252 23.9275 31.4252 28.6505 34.3279 31.5531C35.7337 32.959 37.6032 33.7335 39.5916 33.7335ZM47.0364 136.474C47.0364 134.486 46.262 132.617 44.8561 131.21C43.4499 129.804 41.5804 129.03 39.592 129.03C37.6036 129.03 35.7341 129.804 34.3282 131.21C31.4255 134.113 31.4255 138.836 34.3282 141.739C35.7341 143.145 37.6036 143.919 39.592 143.919C41.5804 143.919 43.4499 143.144 44.8557 141.739C46.262 140.332 47.0364 138.463 47.0364 136.474ZM131.112 129.03C129.123 129.03 127.254 129.804 125.848 131.21C124.441 132.616 123.667 134.486 123.667 136.474C123.667 138.463 124.441 140.332 125.847 141.738C127.254 143.144 129.123 143.919 131.112 143.919C133.1 143.919 134.969 143.144 136.375 141.738C139.278 138.836 139.278 134.113 136.375 131.21C134.969 129.804 133.1 129.03 131.112 129.03ZM85.3516 20.2806C89.4567 20.2806 92.7964 16.9409 92.7964 12.8358C92.7964 8.73102 89.4567 5.39134 85.3516 5.39134C81.2464 5.39134 77.9067 8.73102 77.9067 12.8358C77.9067 16.9413 81.2464 20.2806 85.3516 20.2806ZM85.3516 142.482C81.2464 142.482 77.9067 145.822 77.9067 149.927C77.9067 154.032 81.2464 157.372 85.3516 157.372C89.4567 157.372 92.7964 154.032 92.7964 149.927C92.7964 145.822 89.4567 142.482 85.3516 142.482ZM146.682 81.3815C135.334 57.9995 111.399 42.9593 85.3516 42.9593C59.3044 42.9593 35.3693 57.9995 24.021 81.3815C35.3693 104.764 59.3044 119.804 85.3516 119.804C111.399 119.804 135.334 104.764 146.682 81.3815Z" fill="#8BAECA"/>
</svg>
