<svg width="512" height="512" viewBox="0 0 512 512" fill="none" xmlns="http://www.w3.org/2000/svg">
<path d="M189.409 79.3226C189.409 63.7151 176.722 51.0176 161.129 51.0176C145.537 51.0176 132.852 63.7151 132.852 79.3226C132.852 94.9301 145.537 107.628 161.129 107.628C176.722 107.628 189.409 94.9301 189.409 79.3226ZM161.129 97.3876C151.184 97.3876 143.092 89.2826 143.092 79.3226C143.092 69.3626 151.184 61.2576 161.129 61.2576C171.077 61.2576 179.169 69.3626 179.169 79.3226C179.169 89.2826 171.077 97.3876 161.129 97.3876Z" fill="white"/>
<path d="M379.147 79.3226C379.147 63.7151 366.46 51.0176 350.867 51.0176C335.275 51.0176 322.59 63.7151 322.59 79.3226C322.59 94.9301 335.275 107.628 350.867 107.628C366.46 107.628 379.147 94.9301 379.147 79.3226ZM332.83 79.3226C332.83 69.3626 340.922 61.2576 350.867 61.2576C360.815 61.2576 368.907 69.3626 368.907 79.3226C368.907 89.2826 360.815 97.3876 350.867 97.3876C340.922 97.3876 332.83 89.2826 332.83 79.3226Z" fill="white"/>
<path d="M256.001 460.982C324.278 460.982 379.826 405.435 379.826 337.157C379.826 287.087 350.391 242.752 304.536 223.242V154.63H313.008C315.836 154.63 318.128 152.337 318.128 149.51C318.128 146.682 315.836 144.39 313.008 144.39H198.993C196.166 144.39 193.873 146.682 193.873 149.51C193.873 152.337 196.166 154.63 198.993 154.63H207.466V223.242C161.611 242.75 132.176 287.087 132.176 337.157C132.176 405.435 187.723 460.982 256.001 460.982ZM214.461 231.445C216.418 230.675 217.706 228.785 217.706 226.68V195.312H240.896C243.723 195.312 246.016 193.02 246.016 190.192C246.016 187.365 243.723 185.072 240.896 185.072H217.706V154.63H294.296V226.68C294.296 228.785 295.583 230.675 297.541 231.445C341.306 248.657 369.586 290.152 369.586 337.157C369.586 399.787 318.631 450.742 256.001 450.742C193.371 450.742 142.416 399.787 142.416 337.157C142.416 290.152 170.696 248.657 214.461 231.445Z" fill="white"/>
<path d="M256 422.555C303.14 422.555 341.49 384.203 341.49 337.063C341.49 326.998 339.665 316.988 336.068 307.305C335.32 305.3 333.408 303.97 331.268 303.97H180.733C178.593 303.97 176.68 305.3 175.935 307.305C172.333 316.983 170.508 326.995 170.508 337.063C170.508 384.203 208.86 422.555 256 422.555ZM184.375 314.21H327.625C330.033 321.698 331.25 329.368 331.25 337.063C331.25 378.558 297.493 412.315 256 412.315C214.505 412.315 180.748 378.558 180.748 337.063C180.748 329.365 181.968 321.695 184.375 314.21Z" fill="white"/>
<path d="M287.015 97.0325C287.015 78.485 271.927 63.3975 253.38 63.3975C234.832 63.3975 219.742 78.485 219.742 97.0325C219.742 115.58 234.832 130.67 253.38 130.67C271.927 130.67 287.015 115.58 287.015 97.0325ZM229.982 97.0325C229.982 84.1325 240.477 73.6375 253.38 73.6375C266.28 73.6375 276.775 84.1325 276.775 97.0325C276.775 109.935 266.28 120.43 253.38 120.43C240.477 120.43 229.982 109.935 229.982 97.0325Z" fill="white"/>
<path d="M121.792 190.827C137.384 190.827 150.072 178.13 150.072 162.522C150.072 146.917 137.384 134.22 121.792 134.22C106.199 134.22 93.5117 146.917 93.5117 162.522C93.5117 178.13 106.199 190.827 121.792 190.827ZM121.792 144.46C131.739 144.46 139.832 152.562 139.832 162.522C139.832 172.482 131.739 180.587 121.792 180.587C111.844 180.587 103.752 172.482 103.752 162.522C103.752 152.562 111.844 144.46 121.792 144.46Z" fill="white"/>
<path d="M351.406 166.343C351.406 184.838 366.454 199.883 384.949 199.883C403.444 199.883 418.491 184.838 418.491 166.343C418.491 147.848 403.444 132.8 384.949 132.8C366.454 132.8 351.406 147.848 351.406 166.343ZM408.251 166.343C408.251 179.19 397.799 189.643 384.949 189.643C372.099 189.643 361.646 179.19 361.646 166.343C361.646 153.493 372.099 143.04 384.949 143.04C397.799 143.04 408.251 153.493 408.251 166.343Z" fill="white"/>
</svg>
