<svg width="176" height="175" viewBox="0 0 176 175" fill="none" xmlns="http://www.w3.org/2000/svg">
<path d="M67.7974 104.103C47.7654 104.103 31.4688 87.806 31.4688 67.774C31.4688 47.7664 47.7654 31.4873 67.7974 31.4873C87.8295 31.4873 104.126 47.7664 104.126 67.774C104.126 87.806 87.8295 104.103 67.7974 104.103ZM67.7974 36.8647C50.7306 36.8647 36.8461 50.7317 36.8461 67.774C36.8461 84.8408 50.7306 98.7253 67.7974 98.7253C84.8642 98.7253 98.7487 84.8408 98.7487 67.774C98.7487 50.7317 84.8642 36.8647 67.7974 36.8647Z" fill="#8BAECA"/>
<path d="M73.8827 135.593H61.7556C58.3142 135.593 55.517 132.792 55.517 129.351V119.233C50.0556 117.941 44.8953 115.802 40.1306 112.851L32.9783 120.003C30.5522 122.44 26.5857 122.44 24.1526 120.003L15.5894 111.44C13.1563 109.007 13.1563 105.048 15.5894 102.614L22.6997 95.5006C19.752 90.7394 17.613 85.5686 16.3176 80.0757H6.24208C2.80071 80.0757 0 77.2785 0 73.8372V61.7101C0 58.2687 2.80071 55.4715 6.24208 55.4715H16.3176C17.613 49.9716 19.752 44.8113 22.6962 40.0816L15.5859 32.9713C13.1563 30.5417 13.1528 26.5857 15.5789 24.1561L24.1456 15.5614C25.3219 14.3781 26.8903 13.727 28.5602 13.727C30.2301 13.727 31.8055 14.3781 32.9853 15.5614L40.1166 22.7172C44.9444 19.7485 50.1082 17.5989 55.517 16.3176V6.23858C55.517 2.79721 58.3142 0 61.7556 0H73.8827C77.324 0 80.1212 2.79721 80.1212 6.23858V16.3176C85.5406 17.6024 90.6904 19.7485 95.4831 22.7137L102.614 15.5579C103.794 14.3746 105.363 13.7235 107.029 13.7235H107.036C108.702 13.7235 110.267 14.3711 111.447 15.5509L120.042 24.1456C121.222 25.3254 121.873 26.8938 121.869 28.5637C121.869 30.2301 121.218 31.7985 120.035 32.9783L112.893 40.0956C115.813 44.8393 117.99 50.0837 119.275 55.4715H129.354C132.796 55.4715 135.593 58.2687 135.593 61.7101V73.8372C135.593 77.2785 132.796 80.0757 129.354 80.0757H119.279C117.99 85.5021 115.851 90.6729 112.89 95.4901L120.031 102.607C121.215 103.787 121.866 105.359 121.866 107.033C121.866 108.702 121.215 110.271 120.031 111.447L111.437 120.014C109.007 122.436 105.051 122.436 102.621 120.007L95.4691 112.855C90.7394 115.802 85.5931 117.941 80.1212 119.233V129.351C80.1212 132.792 77.324 135.593 73.8827 135.593ZM39.77 106.721C40.2952 106.721 40.8203 106.875 41.2824 107.187C46.5618 110.775 52.4292 113.208 58.7133 114.419C59.9807 114.661 60.8944 115.771 60.8944 117.059V129.351C60.8944 129.827 61.2795 130.215 61.7556 130.215H73.8827C74.3588 130.215 74.7439 129.827 74.7439 129.351V117.059C74.7439 115.771 75.6576 114.661 76.9249 114.419C83.2265 113.205 89.0765 110.775 94.3068 107.19C95.3746 106.462 96.8135 106.591 97.7272 107.509L106.423 116.205C106.759 116.541 107.306 116.541 107.642 116.205L116.236 107.638C116.446 107.432 116.488 107.194 116.488 107.029C116.488 106.896 116.457 106.637 116.236 106.416L107.558 97.7692C106.647 96.8625 106.504 95.4341 107.222 94.3663C110.828 88.996 113.264 83.111 114.465 76.8794C114.706 75.6121 115.816 74.6984 117.105 74.6984H129.354C129.83 74.6984 130.215 74.3133 130.215 73.8372V61.7101C130.215 61.234 129.83 60.8489 129.354 60.8489H117.105C115.816 60.8489 114.706 59.9351 114.465 58.6678C113.278 52.5063 110.775 46.4742 107.229 41.2299C106.504 40.1621 106.644 38.7303 107.558 37.8201L116.24 29.1694C116.46 28.9488 116.492 28.6933 116.492 28.5602C116.492 28.3957 116.45 28.1576 116.24 27.9476L107.645 19.3529C107.435 19.1428 107.197 19.1008 107.036 19.1008C107.008 19.1603 106.651 19.1288 106.423 19.3529L97.7727 28.0351C96.894 28.9243 95.3606 29.0678 94.3208 28.3642C88.989 24.7583 83.1355 22.3251 76.9249 21.1278C75.6576 20.8863 74.7439 19.7765 74.7439 18.4882V6.23858C74.7439 5.76246 74.3588 5.37736 73.8827 5.37736H61.7556C61.2795 5.37736 60.8944 5.76246 60.8944 6.23858V18.4882C60.8944 19.7765 59.9807 20.8863 58.7133 21.1278C52.5203 22.3216 46.6493 24.7548 41.2684 28.3712C40.2322 29.0713 38.7058 28.9243 37.8236 28.0351L29.1764 19.3564C28.9558 19.1358 28.7003 19.1043 28.5637 19.1043C28.3992 19.1043 28.1611 19.1463 27.9546 19.3564L19.3879 27.9511C19.0518 28.2871 19.0518 28.8333 19.3879 29.1694L28.0421 37.8236C28.9558 38.7373 29.0924 40.1762 28.3607 41.2439C24.7828 46.4637 22.3531 52.3277 21.1313 58.6678C20.8898 59.9351 19.78 60.8489 18.4917 60.8489H6.24208C5.76596 60.8489 5.37736 61.234 5.37736 61.7101V73.8372C5.37736 74.3133 5.76596 74.6984 6.24208 74.6984H18.4917C19.78 74.6984 20.8898 75.6121 21.1313 76.8794C22.3496 83.202 24.7828 89.0835 28.3642 94.3523C29.0889 95.4201 28.9558 96.852 28.0421 97.7657L19.3914 106.416C19.0553 106.752 19.0553 107.302 19.3914 107.638L27.9546 116.201C28.2906 116.541 28.8403 116.534 29.1764 116.201L37.8691 107.509C38.3872 106.987 39.0769 106.721 39.77 106.721Z" fill="#8BAECA"/>
<path d="M150.223 174.19H117.914C116.167 174.19 114.532 173.419 113.425 172.079L106.312 163.442C104.894 161.719 104.607 159.402 105.555 157.392C106.515 155.355 108.524 154.091 110.796 154.091H121.288C124.068 154.091 126.33 151.892 126.33 149.193C126.33 146.494 124.068 144.299 121.288 144.299H110.789C108.521 144.299 106.511 143.035 105.548 140.998C104.596 138.988 104.887 136.674 106.298 134.952L113.425 126.28C114.532 124.939 116.167 124.169 117.914 124.169H150.223C164.248 124.169 175.661 135.389 175.661 149.179C175.661 162.969 164.248 174.19 150.223 174.19ZM110.796 159.468C110.73 159.468 110.52 159.468 110.418 159.689L117.577 168.662C117.654 168.756 117.781 168.812 117.914 168.812H150.223C161.286 168.812 170.283 160.004 170.283 149.179C170.283 138.355 161.286 129.546 150.223 129.546H117.914C117.781 129.546 117.654 129.602 117.577 129.697L110.453 138.365C110.513 138.922 110.723 138.922 110.789 138.922H121.288C127.033 138.922 131.707 143.529 131.707 149.193C131.707 154.858 127.033 159.468 121.288 159.468H110.796Z" fill="#8BAECA"/>
<path d="M115.648 159.469C114.163 159.469 112.959 158.264 112.959 156.78V141.611C112.959 140.126 114.163 138.922 115.648 138.922C117.132 138.922 118.336 140.126 118.336 141.611V156.78C118.336 158.264 117.132 159.469 115.648 159.469Z" fill="#8BAECA"/>
<path d="M115.648 151.869H75.9726C69.9826 151.869 65.1094 146.996 65.1094 141.006V132.904C65.1094 131.42 66.3137 130.216 67.7981 130.216C69.2824 130.216 70.4867 131.42 70.4867 132.904V141.006C70.4867 144.03 72.9479 146.491 75.9726 146.491H115.648C117.133 146.491 118.337 147.696 118.337 149.18C118.337 150.664 117.133 151.869 115.648 151.869Z" fill="#8BAECA"/>
<path d="M65.3746 80.0755C63.8902 80.0755 62.6859 78.8712 62.6859 77.3868V62.4905C62.6859 61.4123 62.2728 60.411 61.5201 59.6723C60.7429 58.8951 59.7277 58.475 58.6459 58.475C56.4193 58.475 54.6059 60.278 54.6059 62.4905V77.3868C54.6059 78.8712 53.4016 80.0755 51.9172 80.0755C50.4328 80.0755 49.2285 78.8712 49.2285 77.3868V62.4905C49.2285 57.3127 53.4541 53.0977 58.6459 53.0977C61.163 53.0977 63.5296 54.0744 65.3046 55.8529C67.076 57.5963 68.0633 59.9594 68.0633 62.4905V77.3868C68.0633 78.8712 66.859 80.0755 65.3746 80.0755Z" fill="#8BAECA"/>
<path d="M80.9719 79.3123C79.4875 79.3123 78.2832 78.108 78.2832 76.6236V57.1867C78.2832 55.7024 79.4875 54.498 80.9719 54.498C82.4563 54.498 83.6606 55.7024 83.6606 57.1867V76.6236C83.6606 78.108 82.4563 79.3123 80.9719 79.3123Z" fill="#8BAECA"/>
<path d="M84.9962 59.8754H76.9406C75.4563 59.8754 74.252 58.6711 74.252 57.1867C74.252 55.7024 75.4563 54.498 76.9406 54.498H84.9962C86.4805 54.498 87.6848 55.7024 87.6848 57.1867C87.6848 58.6711 86.4805 59.8754 84.9962 59.8754Z" fill="#8BAECA"/>
<path d="M84.9962 79.3119H76.9406C75.4563 79.3119 74.252 78.1076 74.252 76.6232C74.252 75.1389 75.4563 73.9346 76.9406 73.9346H84.9962C86.4805 73.9346 87.6848 75.1389 87.6848 76.6232C87.6848 78.1076 86.4805 79.3119 84.9962 79.3119Z" fill="#8BAECA"/>
<path d="M65.3746 70.5141H51.9172C50.4328 70.5141 49.2285 69.3098 49.2285 67.8254C49.2285 66.341 50.4328 65.1367 51.9172 65.1367H65.3746C66.859 65.1367 68.0633 66.341 68.0633 67.8254C68.0633 69.3098 66.859 70.5141 65.3746 70.5141Z" fill="#8BAECA"/>
</svg>
