<svg width="129" height="152" viewBox="0 0 129 152" fill="none" xmlns="http://www.w3.org/2000/svg">
<path fill-rule="evenodd" clip-rule="evenodd" d="M21.9036 101.404C14.6028 99.6218 8.88179 97.4457 5.29791 95.0546C1.68179 92.6434 0 89.8373 0 87.1225V13.1331C0 10.8898 1.10284 8.62103 3.49254 6.56312C6.16567 4.25805 10.671 2.07924 16.65 0.257749C18.3318 -0.272848 20.1654 0.0253614 21.5933 1.06372C23.0319 2.11014 23.8822 3.78118 23.8822 5.55029C23.9051 11.8557 23.9118 18.748 23.9131 22.1721C28.7772 23.3152 34.3787 24.277 40.5269 25.0185C42.4222 25.2495 44.1591 25.944 45.63 26.9824C50.6216 22.473 57.1849 19.738 64.3661 19.738C71.5473 19.738 78.1092 22.4716 83.1022 26.9824C84.5718 25.944 86.3087 25.2495 88.204 25.0185C94.3522 24.277 99.9537 23.3152 104.818 22.1721C104.819 18.748 104.826 11.8597 104.849 5.56103C104.849 3.78118 105.699 2.11014 107.138 1.06372C108.566 0.0253614 110.4 -0.272848 112.082 0.257749C118.06 2.07924 122.567 4.25805 125.24 6.56312C127.628 8.62103 128.731 10.8898 128.731 13.1331V87.1225C128.731 89.8373 127.049 92.6434 123.433 95.0546C119.85 97.4457 114.128 99.6218 106.829 101.404C117.653 111.557 121.288 128.199 122.389 138.783C122.716 141.934 121.691 145.078 119.568 147.432C117.446 149.785 114.425 151.129 111.256 151.129C90.4151 151.13 38.3172 151.13 17.4775 151.13C14.3073 151.131 11.2849 149.788 9.16119 147.435C7.03746 145.08 6.01119 141.934 6.33761 138.781C7.44448 128.197 11.0794 111.557 21.9036 101.404ZM49.2542 31.2513C49.9715 32.7303 50.3718 34.3852 50.3731 36.1261C50.3731 46.2169 50.3731 61.8701 50.3718 75.8027C54.1975 80.8158 59.0158 84.1713 64.3661 84.1713C69.7137 84.1713 74.5334 80.848 78.3591 75.8564C78.3578 61.9091 78.3578 46.2303 78.3578 36.1261C78.3591 34.3852 78.7594 32.7289 79.4767 31.2513C75.467 27.5761 70.1718 25.3342 64.3661 25.3342C58.5604 25.3342 53.2639 27.5761 49.2542 31.2513ZM50.3718 83.998C50.3718 88.7627 50.3704 93.0948 50.3704 96.6289C50.3704 97.9185 50.0655 99.1731 49.4987 100.299C52.9428 106.353 58.2676 110.387 64.3661 110.387C70.4646 110.387 75.7881 106.353 79.2336 100.299C78.6654 99.1731 78.3604 97.9185 78.3604 96.6303C78.3604 93.1042 78.3604 88.7842 78.3591 84.0316C74.2057 87.6625 69.4128 89.7688 64.3661 89.7688C59.3194 89.7688 54.5266 87.6464 50.3718 83.998ZM45.2996 104.18C44.0449 104.693 42.6694 104.89 41.2939 104.734C36.9027 104.235 32.7627 103.619 28.9303 102.906C16.5076 111.4 13.0057 128.83 11.9042 139.36C11.7416 140.936 12.2548 142.507 13.316 143.684C14.3785 144.862 15.8897 145.534 17.4761 145.533C38.3158 145.533 90.4151 145.533 111.256 145.531C112.84 145.531 114.351 144.86 115.412 143.683C116.472 142.506 116.985 140.936 116.823 139.36C115.727 128.83 112.225 111.398 99.8019 102.906C95.9682 103.619 91.8282 104.235 87.437 104.734C86.0628 104.89 84.6873 104.693 83.4327 104.181C78.8897 111.46 71.9825 115.984 64.3661 115.984C56.7497 115.984 49.8425 111.46 45.2996 104.18ZM20.7766 27.1342C20.5307 27.0885 20.2916 27.0254 20.0606 26.9488C13.8331 25.3086 8.88313 23.3703 5.59746 21.2613V87.1225C5.59746 87.7807 6.03 88.361 6.63179 88.9736C7.65134 90.0119 9.16791 90.9777 11.0848 91.9113C17.6669 95.1137 28.5743 97.6552 41.9252 99.1731C42.6493 99.2551 43.3746 99.024 43.9187 98.5391C44.4627 98.0528 44.773 97.3583 44.773 96.6289C44.7757 81.5546 44.7757 51.9809 44.7757 36.1274C44.7743 33.2985 42.6613 30.9155 39.8552 30.5757C32.713 29.7133 26.2693 28.5379 20.7766 27.1342ZM36.771 68.9224C38.301 69.1386 39.3676 70.5545 39.1513 72.0845C38.9364 73.6145 37.5193 74.681 35.9893 74.4648C26.7743 73.1658 18.9094 71.3483 13.0299 69.1951C11.5791 68.6645 10.8336 67.0552 11.3642 65.6045C11.8961 64.1551 13.5054 63.4082 14.9548 63.9401C20.5401 65.986 28.0169 67.6879 36.771 68.9224ZM36.771 54.1248C38.301 54.341 39.3676 55.7569 39.1513 57.2869C38.9364 58.8155 37.5193 59.8821 35.9893 59.6672C26.7743 58.3669 18.9094 56.5507 13.0299 54.3974C11.5791 53.8655 10.8336 52.2576 11.3642 50.8069C11.8961 49.3561 13.5054 48.6106 14.9548 49.1412C20.5401 51.1883 28.0169 52.8903 36.771 54.1248ZM36.771 39.3272C38.301 39.5421 39.3676 40.9592 39.1513 42.4892C38.9364 44.0179 37.5193 45.0845 35.9893 44.8695C26.7743 43.5692 18.9094 41.7531 13.0299 39.5998C11.5791 39.0679 10.8336 37.46 11.3642 36.0092C11.8961 34.5585 13.5054 33.813 14.9548 34.3436C20.5401 36.3894 28.0169 38.0927 36.771 39.3272ZM26.7851 81.9939C28.2976 82.3095 29.2675 83.7939 28.9504 85.3064C28.6348 86.8176 27.1504 87.7874 25.6379 87.4718C20.8128 86.4603 16.5654 85.2876 13.0299 83.9927C11.5791 83.4621 10.8336 81.8528 11.3642 80.4021C11.8961 78.9527 13.5054 78.2058 14.9548 78.7378C18.2713 79.9521 22.2582 81.0455 26.7851 81.9939ZM5.59746 13.1331C5.59746 13.7712 6.00716 14.3354 6.5794 14.9304C7.5506 15.9419 8.99866 16.8836 10.8296 17.7957C12.8982 18.8273 15.4142 19.7904 18.3157 20.6743C18.313 16.9843 18.3063 11.0792 18.2861 5.60939C14.0252 6.90835 10.6079 8.35238 8.26791 9.9482C6.71239 11.008 5.59746 11.943 5.59746 13.1331ZM123.135 21.2613C119.848 23.3703 114.898 25.3086 108.67 26.9488C108.439 27.0254 108.2 27.0885 107.954 27.1342C102.463 28.5379 96.0193 29.7133 88.8784 30.5757C86.0696 30.9155 83.9566 33.2985 83.9552 36.1274C83.9552 51.9809 83.9552 81.5546 83.9579 96.6289C83.9579 97.3583 84.2682 98.0528 84.8122 98.5391C85.3563 99.024 86.0816 99.2551 86.8057 99.1731C100.157 97.6552 111.065 95.1137 117.646 91.9113C119.564 90.9777 121.08 90.0119 122.099 88.9736C122.701 88.361 123.135 87.7807 123.135 87.1225V21.2613ZM117.537 54.1207C117.541 55.9422 116.396 57.5636 114.679 58.1707L114.66 58.1775C109.295 60.0312 102.423 61.6203 94.4772 62.8198C93.2427 63.0039 91.9881 62.6425 91.0424 61.8285C90.0967 61.0131 89.5527 59.827 89.5527 58.5791C89.5527 54.4042 89.5527 47.2418 89.5527 43.3852C89.5567 41.2615 91.1136 39.4588 93.2118 39.1485C100.488 38.0672 106.838 36.6594 111.861 35.0085C113.17 34.5598 114.616 34.7707 115.741 35.5754C116.868 36.3813 117.536 37.6803 117.536 39.0639C117.537 43.9172 117.537 49.97 117.537 54.1207ZM95.1488 57.0518C101.658 56.0107 107.358 54.6983 111.94 53.1939C111.94 49.6288 111.94 44.9676 111.94 40.8504C107.21 42.2824 101.536 43.5249 95.1488 44.5163V57.0518ZM117.537 80.3121C117.541 82.1322 116.396 83.7536 114.679 84.3607L114.66 84.3675C109.295 86.2212 102.423 87.8103 94.4772 89.0098C93.2427 89.1939 91.9881 88.8325 91.0424 88.0185C90.0967 87.2031 89.5527 86.017 89.5527 84.7691C89.5527 82.2101 89.5527 78.821 89.5527 76.3857C89.5567 74.2633 91.1136 72.4592 93.2118 72.1503C100.488 71.0676 106.838 69.6598 111.861 68.0089C113.17 67.5603 114.616 67.7725 115.741 68.5771C116.868 69.3818 117.536 70.6807 117.536 72.0643C117.537 76.2594 117.537 77.6591 117.537 80.3121ZM95.1488 83.2418C101.658 82.2007 107.358 80.8897 111.94 79.3839C111.94 77.6537 111.94 76.3104 111.94 73.8522C107.21 75.2828 101.536 76.5254 95.1488 77.5167V83.2418ZM110.415 20.6743C113.317 19.7904 115.833 18.8273 117.901 17.7957C119.732 16.8836 121.18 15.9419 122.153 14.9304C122.724 14.3354 123.135 13.7712 123.135 13.1331C123.135 11.943 122.019 11.008 120.463 9.9482C118.123 8.35238 114.706 6.90835 110.445 5.60939C110.425 11.0792 110.418 16.9843 110.415 20.6743Z" fill="#8BAECA"/>
</svg>
