<svg width="113" height="179" viewBox="0 0 113 179" fill="none" xmlns="http://www.w3.org/2000/svg">
<path fill-rule="evenodd" clip-rule="evenodd" d="M62.0869 133.971C61.0088 133.971 60.1325 133.096 60.1325 132.017L60.133 93.6928C60.133 91.686 58.4961 90.0495 56.4852 90.0495C54.4788 90.0495 52.8415 91.686 52.8415 93.6932L52.8419 132.017C52.8419 133.096 51.9665 133.971 50.8876 133.971C49.8094 133.971 48.9336 133.096 48.9336 132.017V93.6928C48.9336 89.5284 52.3204 86.1416 56.4852 86.1416C60.6508 86.1412 64.0409 89.5284 64.0409 93.6932L64.0417 132.017C64.0417 133.096 63.1655 133.971 62.0869 133.971Z" fill="#8BAECA"/>
<path fill-rule="evenodd" clip-rule="evenodd" d="M73.2828 133.972C72.2039 133.972 71.3281 133.096 71.3281 132.018L71.3285 110.437C71.3285 108.426 69.6958 106.794 67.6848 106.794C65.6739 106.794 64.0412 108.426 64.0412 110.437C64.042 111.516 63.1658 112.391 62.0872 112.391C61.009 112.391 60.1328 111.516 60.1328 110.437C60.1332 106.273 63.52 102.886 67.6848 102.886C71.8496 102.885 75.2364 106.273 75.2364 110.437L75.2368 132.017C75.2368 133.096 74.361 133.972 73.2828 133.972Z" fill="#8BAECA"/>
<path fill-rule="evenodd" clip-rule="evenodd" d="M84.4782 133.972C83.3992 133.972 82.5234 133.096 82.5234 132.018L82.5242 115.115C82.5242 113.108 80.8911 111.471 78.8801 111.471C76.8737 111.471 75.2365 113.108 75.2365 115.115C75.2369 116.194 74.3611 117.069 73.2825 117.069C72.2039 117.069 71.3281 116.194 71.3281 115.115C71.3285 110.95 74.7154 107.563 78.8801 107.563C83.0445 107.563 86.4313 110.95 86.4313 115.115L86.4317 132.017C86.4317 133.096 85.5604 133.972 84.4782 133.972Z" fill="#8BAECA"/>
<path fill-rule="evenodd" clip-rule="evenodd" d="M91.1866 162.358C90.7469 162.358 90.3071 162.211 89.9408 161.91C89.1113 161.222 88.9923 159.989 89.6803 159.158C92.4324 155.828 93.3442 152.034 93.6088 150.556C94.452 145.838 94.1704 137.146 93.9264 129.481C93.8211 126.199 93.7228 123.102 93.7228 120.59C93.7228 118.582 92.0864 116.946 90.0792 116.946C88.0686 116.946 86.4314 118.583 86.4314 120.59C86.4318 121.669 85.5605 122.544 84.4778 122.544C83.3992 122.544 82.5234 121.669 82.5234 120.59C82.5243 116.425 85.9144 113.038 90.0792 113.038C94.2443 113.038 97.6307 116.425 97.6307 120.59C97.6316 123.036 97.7286 126.106 97.8343 129.354C98.0829 137.215 98.3678 146.123 97.4557 151.244C97.0617 153.454 95.9171 157.746 92.693 161.649C92.3069 162.113 91.7482 162.358 91.1866 162.358Z" fill="#8BAECA"/>
<path fill-rule="evenodd" clip-rule="evenodd" d="M52.8098 162.358C52.3906 162.358 51.9666 162.224 51.6081 161.943C46.845 158.23 45.4774 154.636 44.0281 150.829C43.5478 149.554 43.047 148.24 42.3916 146.84C41.5571 145.044 38.4507 138.787 33.6182 133.605C29.9262 129.644 30.8586 125.378 33.4192 122.902C36.1998 120.215 41.0967 119.462 44.4761 122.841L52.2721 130.637C53.0336 131.398 53.0332 132.636 52.2717 133.402C51.5066 134.163 50.2686 134.163 49.5076 133.402L41.712 125.605C40.0305 123.924 37.5551 124.339 36.1346 125.715C35.4186 126.407 34.0175 128.3 36.4761 130.938C41.7037 136.54 45.0377 143.261 45.937 145.191C46.6501 146.718 47.1746 148.102 47.6837 149.441C49.093 153.146 50.1059 155.82 54.0101 158.861C54.8616 159.524 55.0156 160.754 54.352 161.605C53.966 162.097 53.3912 162.358 52.8098 162.358Z" fill="#8BAECA"/>
<path fill-rule="evenodd" clip-rule="evenodd" d="M54.7642 175.092H89.2332V162.358H54.7642V175.092ZM90.2754 179H53.722C52.1426 179 50.8555 177.714 50.8555 176.135L50.8559 160.404C50.8559 159.326 51.7309 158.45 52.8099 158.45H91.1868C92.2657 158.45 93.1407 159.326 93.1407 160.404L93.1415 176.134C93.1415 177.714 91.8544 179 90.2754 179Z" fill="#8BAECA"/>
<path fill-rule="evenodd" clip-rule="evenodd" d="M56.4856 73.7857C55.4066 73.7857 54.5312 72.9107 54.5312 71.8322L54.5321 58.6053C54.5321 57.5222 55.4062 56.6514 56.4852 56.6514C57.5683 56.6514 58.4392 57.5226 58.4392 58.6053L58.4396 71.8322C58.4396 72.9107 57.5679 73.7861 56.4856 73.7857Z" fill="#8BAECA"/>
<path fill-rule="evenodd" clip-rule="evenodd" d="M56.4859 40.5628C52.0528 40.5628 48.4455 44.1701 48.4455 48.6074C48.4459 53.0406 52.0524 56.6516 56.4855 56.6516C60.9228 56.6516 64.5297 53.0406 64.5297 48.6074C64.5301 44.1701 60.9228 40.5632 56.4859 40.5628ZM56.4859 60.5595C49.8994 60.5595 44.5371 55.1985 44.5371 48.6074C44.5371 42.0167 49.8985 36.6553 56.4855 36.6553C63.0762 36.6549 68.4381 42.0167 68.4381 48.6074C68.4385 55.1985 63.0762 60.56 56.4859 60.5595Z" fill="#8BAECA"/>
<path fill-rule="evenodd" clip-rule="evenodd" d="M67.9562 79.5344C67.3582 79.5344 66.7715 79.2615 66.3887 78.7486C65.7425 77.8856 65.9209 76.66 66.7839 76.013L94.8207 55.0756C95.6837 54.4285 96.9089 54.6077 97.5563 55.4707C98.2001 56.3379 98.0246 57.5635 97.1574 58.2064L69.1206 79.1434C68.7709 79.408 68.3592 79.5344 67.9562 79.5344Z" fill="#8BAECA"/>
<path fill-rule="evenodd" clip-rule="evenodd" d="M101.021 39.9568C96.584 39.9568 92.9767 43.5678 92.9767 48.001C92.9771 52.4383 96.5836 56.0452 101.021 56.0452C105.454 56.0452 109.061 52.4383 109.061 48.001C109.061 43.5674 105.454 39.9568 101.021 39.9568ZM101.021 59.9531C94.4306 59.9531 89.0684 54.5921 89.0684 48.001C89.0688 41.4098 94.4298 36.0488 101.021 36.0488C107.608 36.0484 112.969 41.4103 112.969 48.001C112.97 54.5917 107.608 59.9535 101.021 59.9531Z" fill="#8BAECA"/>
<path fill-rule="evenodd" clip-rule="evenodd" d="M45.0171 79.5343C44.6095 79.5343 44.2024 79.408 43.8522 79.1433L15.8158 58.2063C14.9486 57.563 14.7731 56.3378 15.4165 55.4707C16.0639 54.6076 17.285 54.4284 18.1521 55.0759L46.1894 76.0129C47.0524 76.6599 47.2312 77.8855 46.5837 78.7485C46.2013 79.2614 45.615 79.5343 45.0171 79.5343Z" fill="#8BAECA"/>
<path fill-rule="evenodd" clip-rule="evenodd" d="M11.953 39.9568C7.51938 39.9568 3.90834 43.5678 3.90834 48.001C3.90876 52.4383 7.51938 56.0452 11.9526 56.0452C16.3907 56.0452 19.9968 52.4383 19.9968 48.001C19.9968 43.5674 16.3898 39.9568 11.953 39.9568ZM11.953 59.9531C5.36225 59.9531 0 54.5921 0 48.001C0.000412926 41.4098 5.36143 36.0488 11.9526 36.0488C18.5441 36.0484 23.9047 41.4103 23.9047 48.001C23.9055 54.5917 18.5433 59.9535 11.953 59.9531Z" fill="#8BAECA"/>
<path fill-rule="evenodd" clip-rule="evenodd" d="M56.4856 40.5625C55.4066 40.5625 54.5312 39.6875 54.5312 38.6089L54.5321 21.9462C54.5321 20.8676 55.4062 19.9922 56.4852 19.9922C57.5683 19.9922 58.4392 20.8676 58.4392 21.9466L58.4396 38.6089C58.4396 39.6875 57.5679 40.5629 56.4856 40.5625Z" fill="#8BAECA"/>
<path fill-rule="evenodd" clip-rule="evenodd" d="M19.7243 43.6645C19.1537 43.6645 18.5921 43.4163 18.2052 42.9402C17.5255 42.1011 17.6556 40.8718 18.4942 40.1922L47.4886 16.7231C48.3265 16.0426 49.5558 16.1735 50.2358 17.0122C50.9159 17.8504 50.7854 19.0801 49.9468 19.7602L20.954 43.2292C20.5911 43.5216 20.1554 43.6645 19.7243 43.6645ZM93.2503 43.6645C92.8188 43.6645 92.3823 43.5224 92.0202 43.2292L63.027 19.7598C62.1888 19.0801 62.0579 17.8508 62.7376 17.0122C63.4181 16.1731 64.647 16.043 65.4856 16.7231L94.4796 40.1918C95.3178 40.8718 95.4479 42.1015 94.7678 42.9402C94.3817 43.4159 93.8197 43.6645 93.2503 43.6645Z" fill="#8BAECA"/>
<path fill-rule="evenodd" clip-rule="evenodd" d="M56.4859 3.90793C52.0528 3.90793 48.4455 7.51484 48.4455 11.9521C48.4459 16.3853 52.0524 19.9922 56.4855 19.9922C60.9228 19.9922 64.5297 16.3857 64.5297 11.9521C64.5301 7.51442 60.9228 3.90793 56.4859 3.90793ZM56.4859 23.9001C49.8994 23.9001 44.5371 18.5433 44.5371 11.9521C44.5371 5.36102 49.8985 2.38486e-08 56.4855 2.38486e-08C63.0762 -0.000412902 68.4381 5.36143 68.4381 11.9521C68.4385 18.5428 63.0762 23.9006 56.4859 23.9001Z" fill="#8BAECA"/>
<path fill-rule="evenodd" clip-rule="evenodd" d="M50.8874 101.269C50.631 101.269 50.3737 101.22 50.121 101.114C44.1092 98.5536 40.2207 92.6793 40.2207 86.1414C40.2207 77.1727 47.5159 69.8779 56.4842 69.8779C65.4567 69.8775 72.7518 77.1731 72.7518 86.1414C72.7522 92.6793 68.8641 98.5536 62.8511 101.114C61.8588 101.537 60.7101 101.074 60.2864 100.08C59.8636 99.0866 60.3273 97.9391 61.3204 97.5196C65.8882 95.5735 68.8439 91.1077 68.8439 86.1414C68.8439 79.3302 63.2991 73.7859 56.4842 73.7859C49.6734 73.7854 44.1286 79.3306 44.1286 86.1414C44.129 91.1077 47.0844 95.5739 51.6521 97.5196C52.6461 97.9387 53.1094 99.0871 52.6861 100.08C52.3682 100.825 51.648 101.269 50.8874 101.269Z" fill="#8BAECA"/>
<path fill-rule="evenodd" clip-rule="evenodd" d="M52.6264 91.6045C52.0979 91.6045 51.5677 91.3893 51.1812 90.9657C49.9808 89.6427 49.3164 87.929 49.3164 86.1419C49.3168 82.1885 52.5327 78.9727 56.4856 78.9727C60.4431 78.9727 63.6586 82.1889 63.6586 86.1419C63.659 87.9286 62.995 89.6427 61.7942 90.9657C61.0695 91.7634 59.832 91.8208 59.0342 91.0962C58.2364 90.3715 58.1749 89.1339 58.9037 88.3357C59.4492 87.7333 59.7502 86.9558 59.7502 86.1419C59.7506 84.3419 58.2852 82.881 56.4856 82.881C54.691 82.8806 53.2247 84.3423 53.2247 86.1419C53.2252 86.675 53.3552 87.1961 53.5993 87.6561C53.8763 87.7742 54.1328 87.9575 54.3405 88.2057C54.6423 88.5719 54.7922 89.0158 54.7922 89.4556C54.7926 90.0048 54.5601 90.5548 54.1121 90.9372C54.0882 90.9615 54.0634 90.9822 54.039 91.0024C54.0064 91.035 53.9738 91.0677 53.9412 91.0962C53.5671 91.4381 53.0947 91.6049 52.6264 91.6045Z" fill="#8BAECA"/>
</svg>
