<?xml version="1.0" encoding="UTF-8"?>
<svg id="Layer_2" data-name="Layer 2" xmlns="http://www.w3.org/2000/svg" viewBox="0 0 574.36 118.8">
  <defs>
    <style>
      .cls-1 {
        fill: #fff;
      }
    </style>
  </defs>
  <g id="Layer_1-2" data-name="Layer 1">
    <path class="cls-1" d="M88.04,48.89H26.88c.42,5.17,2.18,9.12,5.29,11.86,3.11,2.73,6.93,4.1,11.46,4.1,6.74,0,11.44-2.69,14.07-8.06h28.77c-1.48,5.47-4.12,10.38-7.99,14.77-3.85,4.37-8.66,7.8-14.46,10.28-5.81,2.48-12.27,3.74-19.45,3.74-8.65,0-16.33-1.73-23.07-5.21s-12.02-8.46-15.8-14.91C1.91,59,0,51.44,0,42.79s1.86-16.2,5.62-22.67c3.74-6.45,8.99-11.43,15.72-14.91C28.08,1.73,35.83,0,44.57,0s16.12,1.69,22.75,5.07c6.64,3.39,11.82,8.2,15.56,14.46,3.74,6.26,5.6,13.57,5.6,21.92,0,2.38-.16,4.88-.48,7.46h.03v-.02ZM60.86,34.73c0-4.37-1.59-7.85-4.75-10.43-3.16-2.59-7.12-3.88-11.86-3.88s-8.34,1.24-11.46,3.73c-3.11,2.48-5.04,6.01-5.76,10.59h33.82Z"/>
    <path class="cls-1" d="M217.68,42.38c0,2.46.48,4.77,1.44,6.93.96,2.07,2.21,3.88,3.82,5.47,1.7,1.57,3.67,2.81,5.89,3.7,2.34.89,4.85,1.34,7.49,1.34s4.93-.45,7.17-1.34c2.34-.89,4.3-2.11,5.89-3.7,1.7-1.57,3.02-3.4,3.98-5.47,1.06-2.16,1.59-4.43,1.59-6.79s-.51-4.72-1.59-6.79c-.96-2.07-2.28-3.88-3.98-5.45-1.7-1.57-3.71-2.81-6.07-3.7-2.21-.89-4.57-1.34-7.01-1.34s-4.94.48-7.17,1.48c-2.21.89-4.19,2.11-5.89,3.7-1.7,1.48-3.08,3.26-4.14,5.31-.96,2.07-1.44,4.29-1.44,6.66l.02-.02ZM282.36,4.83v70.67c0,4.23-.26,8.03-.8,11.38-.51,3.35-1.27,6.31-2.21,8.85-1.27,3.26-3.29,6.25-6.07,9.01-2.66,2.85-5.89,5.32-9.72,7.39-3.82,2.07-8.17,3.7-13.06,4.88-4.78,1.19-9.98,1.78-15.61,1.78-6.37,0-12.21-.75-17.54-2.23-5.33-1.48-9.98-3.54-14.02-6.2-3.92-2.57-7.17-5.61-9.72-9.15-2.55-3.46-4.25-7.23-5.1-11.38h32.51c2.02,5.02,6.58,7.55,13.7,7.55,6.07,0,10.67-1.57,13.86-4.74,3.29-3.15,4.92-7.53,4.92-13.16v-7.23c-2.12,1.88-4.19,3.45-6.21,4.72-1.93,1.18-3.88,2.16-5.89,2.96-2.02.79-4.14,1.33-6.37,1.62-2.21.4-4.67.59-7.33.59-5.84,0-11.22-.94-16.09-2.81-4.88-1.88-9.13-4.48-12.76-7.84-3.5-3.35-6.26-7.34-8.28-11.97-1.92-4.72-2.87-9.95-2.87-15.66s1.06-11.17,3.18-16.12c2.12-5.02,4.99-9.36,8.62-13.02,3.71-3.74,8.07-6.66,13.06-8.71,5.1-2.16,10.61-3.26,16.57-3.26,9.66,0,19.22,3.35,25.8,10.05v-7.98h27.44Z"/>
    <path class="cls-1" d="M413.43,42.38c0,2.46.48,4.77,1.44,6.93.96,2.07,2.21,3.88,3.82,5.47,1.7,1.57,3.67,2.81,5.89,3.7,2.34.89,4.85,1.34,7.49,1.34s4.93-.45,7.17-1.34c2.34-.89,4.3-2.11,5.89-3.7,1.7-1.57,3.02-3.4,3.98-5.47,1.06-2.16,1.59-4.43,1.59-6.79s-.51-4.72-1.59-6.79c-.96-2.07-2.28-3.88-3.98-5.45-1.7-1.57-3.71-2.81-6.07-3.7-2.21-.89-4.57-1.34-7.01-1.34s-4.94.48-7.17,1.48c-2.21.89-4.19,2.11-5.89,3.7-1.7,1.48-3.08,3.26-4.14,5.31-.96,2.07-1.44,4.29-1.44,6.66l.02-.02ZM478.11,4.83v70.67c0,4.23-.26,8.03-.8,11.38-.51,3.35-1.27,6.31-2.21,8.85-1.27,3.26-3.29,6.25-6.07,9.01-2.66,2.85-5.89,5.32-9.72,7.39-3.82,2.07-8.17,3.7-13.06,4.88-4.78,1.19-9.98,1.78-15.61,1.78-6.37,0-12.21-.75-17.52-2.23-5.33-1.48-9.98-3.54-14.02-6.2-3.91-2.57-7.17-5.61-9.72-9.15-2.55-3.46-4.25-7.23-5.1-11.38h32.51c2.02,5.02,6.58,7.55,13.7,7.55,6.07,0,10.67-1.57,13.86-4.74,3.29-3.15,4.92-7.53,4.92-13.16v-7.23c-2.12,1.88-4.19,3.45-6.21,4.72-1.92,1.18-3.88,2.16-5.89,2.96-2.02.79-4.14,1.33-6.37,1.62-2.22.4-4.67.59-7.33.59-5.84,0-11.21-.94-16.09-2.81-4.88-1.88-9.13-4.48-12.76-7.84-3.5-3.35-6.26-7.34-8.28-11.97-1.92-4.72-2.89-9.95-2.89-15.66s1.06-11.17,3.18-16.12c2.12-5.02,4.99-9.36,8.62-13.02,3.71-3.74,8.07-6.66,13.06-8.71,5.1-2.16,10.62-3.26,16.57-3.26,9.66,0,19.22,3.35,25.8,10.05v-7.98h27.44Z"/>
    <path class="cls-1" d="M315.35,44.62c0,2.48.45,4.78,1.35,6.96.9,2.08,2.09,3.89,3.58,5.5,1.61,1.59,3.45,2.83,5.54,3.72,2.2.89,4.54,1.34,7.03,1.34s4.64-.44,6.74-1.34c2.2-.89,4.03-2.13,5.54-3.72,1.6-1.57,2.86-3.42,3.74-5.5.99-2.08,1.49-4.31,1.49-6.69s-.48-4.59-1.49-6.69c-.9-2.18-2.15-4.05-3.74-5.64-1.49-1.59-3.34-2.83-5.54-3.72-2.1-.89-4.33-1.33-6.74-1.33s-4.85.44-7.03,1.33c-2.09.89-3.93,2.13-5.54,3.72-1.49,1.59-2.71,3.42-3.58,5.5-.9,1.97-1.35,4.16-1.35,6.53v.03ZM349.48,6.77h27.24v76.14h-27.24v-8.46c-5.81,7.23-13.62,10.82-23.51,10.82-5.6,0-10.72-.99-15.42-2.97-4.68-2.08-8.79-4.96-12.27-8.62-3.48-3.66-6.23-7.96-8.25-12.92-1.89-4.94-2.84-10.33-2.84-16.18,0-5.45.95-10.59,2.84-15.45,1.89-4.94,4.54-9.25,7.94-12.92,3.4-3.66,7.43-6.53,12.13-8.61,4.7-2.18,9.87-3.28,15.56-3.28,9.58,0,17.52,3.32,23.81,9.95v-7.57.06Z"/>
    <path class="cls-1" d="M573.93,48.89h-61.16c.42,5.17,2.18,9.12,5.29,11.86,3.11,2.73,6.93,4.1,11.46,4.1,6.74,0,11.44-2.69,14.07-8.06h28.77c-1.48,5.47-4.14,10.38-7.99,14.77-3.85,4.37-8.66,7.8-14.46,10.28-5.81,2.48-12.27,3.74-19.45,3.74-8.65,0-16.33-1.73-23.07-5.21-6.74-3.48-12.02-8.46-15.8-14.91-3.79-6.45-5.7-14.02-5.7-22.67s1.86-16.2,5.6-22.67c3.74-6.45,8.98-11.43,15.72-14.91,6.74-3.48,14.49-5.21,23.23-5.21s16.12,1.69,22.75,5.07c6.64,3.39,11.83,8.2,15.56,14.46,3.74,6.26,5.6,13.57,5.6,21.92,0,2.38-.16,4.88-.48,7.46h.03l.02-.02ZM546.75,34.73c0-4.37-1.59-7.85-4.73-10.43-3.16-2.59-7.12-3.88-11.86-3.88s-8.34,1.24-11.46,3.73c-3.11,2.48-5.04,6.01-5.76,10.59h33.82-.02Z"/>
    <path class="cls-1" d="M178.84,34.05v52.41c-.24,0-.64,0-1.19-.03-3.66-.13-13.53-1.27-20.33-9.66-.21-.25-.4-.51-.59-.76-3.32-4.4-4.99-9.82-4.99-15.32v-16.67c0-3.75-.29-6.79-.9-9.06-.48-2.38-1.44-4.24-2.82-5.64-1.2-1.19-2.55-2.03-4.04-2.54-1.49-.48-3.1-.73-4.8-.73-4.59,0-8.13,1.38-10.62,4.15-2.41,2.69-3.6,6.53-3.6,11.57v44.68c-.24,0-.64,0-1.19-.03-3.66-.13-13.51-1.27-20.33-9.66-.21-.25-.4-.51-.59-.76-3.32-4.4-4.99-9.82-4.99-15.32V4.64h27.08v11.27c3.71-4.45,7.43-7.42,11.23-8.92,3.79-1.59,8.23-2.38,13.32-2.38,5.39,0,9.96.89,13.77,2.67,3.88,1.68,7.17,4.1,9.87,7.26,2.2,2.59,3.67,5.45,4.48,8.61.8,3.16,1.2,6.79,1.2,10.83v.03l.03.03Z"/>
  </g>
</svg>